<svg id="Layer_1" data-name="Layer 1" xmlns="http://www.w3.org/2000/svg" viewBox="0 0 357.56 357.56"><defs><style>.cls-1{fill:#0080ff;}.cls-2{fill:#fff;}</style></defs><title>fb</title><path class="cls-1" d="M434.78,256a178.78,178.78,0,0,0-357.56,0c0,89.23,65.38,163.19,150.85,176.61V307.68h-45.4V256h45.4V216.61c0-44.8,26.69-69.55,67.52-69.55a275.08,275.08,0,0,1,40,3.49v44H313.07c-22.21,0-29.14,13.79-29.14,27.92V256h49.59l-7.93,51.68H283.93V432.61C369.4,419.19,434.78,345.23,434.78,256Z" transform="translate(-77.22 -77.22)"/><path class="cls-2" d="M325.59,307.68,333.52,256H283.93V222.46c0-14.13,6.93-27.92,29.14-27.92h22.54v-44a275.08,275.08,0,0,0-40-3.49c-40.83,0-67.52,24.75-67.52,69.55V256h-45.4v51.68h45.4V432.61a180.83,180.83,0,0,0,55.86,0V307.68Z" transform="translate(-77.22 -77.22)"/></svg>