<svg id="Layer_1" data-name="Layer 1" xmlns="http://www.w3.org/2000/svg" xmlns:xlink="http://www.w3.org/1999/xlink" viewBox="0 0 395.08 395.08"><defs><style>.cls-1{fill:url(#linear-gradient);}.cls-2{fill:#fff;}</style><linearGradient id="linear-gradient" x1="12.5" y1="41.26" x2="407.5" y2="374.87" gradientUnits="userSpaceOnUse"><stop offset="0" stop-color="#ffe185"/><stop offset="0.21" stop-color="#ffbb36"/><stop offset="0.38" stop-color="#ff5176"/><stop offset="0.52" stop-color="#f63395"/><stop offset="0.74" stop-color="#a436d2"/><stop offset="1" stop-color="#5f4eed"/></linearGradient></defs><title>ig</title><circle class="cls-1" cx="197.54" cy="197.54" r="197.54"/><path class="cls-2" d="M317.32,181.27a13.58,13.58,0,1,0,13.58,13.58A13.58,13.58,0,0,0,317.32,181.27Z" transform="translate(-58.46 -58.46)"/><path class="cls-2" d="M257,198.68a57,57,0,1,0,57,57A57.11,57.11,0,0,0,257,198.68Zm0,93.58a36.54,36.54,0,1,1,36.54-36.54A36.58,36.58,0,0,1,257,292.26Z" transform="translate(-58.46 -58.46)"/><path class="cls-2" d="M302.23,371.53H209.76A69.65,69.65,0,0,1,140.19,302V209.49a69.64,69.64,0,0,1,69.57-69.57h92.47a69.65,69.65,0,0,1,69.58,69.57V302A69.65,69.65,0,0,1,302.23,371.53ZM209.76,161.71A47.83,47.83,0,0,0,162,209.49V302a47.83,47.83,0,0,0,47.78,47.78h92.47A47.84,47.84,0,0,0,350,302V209.49a47.84,47.84,0,0,0-47.79-47.78Z" transform="translate(-58.46 -58.46)"/></svg>