<svg id="Layer_1" data-name="Layer 1" xmlns="http://www.w3.org/2000/svg" viewBox="0 0 386.63 386.63"><defs><style>.cls-1{fill:#9f1ead;}.cls-2{fill:#fff;fill-rule:evenodd;}</style></defs><title>phone</title><circle class="cls-1" cx="256" cy="256" r="193.32" transform="translate(-168.72 193.32) rotate(-45)"/><path class="cls-2" d="M363.46,289.51c-10.94-6.54-25.19-13.85-38.08-8.58-9.9,4.05-16.22,19.54-22.63,27.45-3.29,4.06-7.21,4.69-12.26,2.66-37.15-14.8-65.61-39.59-86.1-73.75-3.47-5.31-2.85-9.5,1.33-14.42,6.2-7.29,14-15.57,15.65-25.4s-2.94-21.3-7-30.05c-5.19-11.18-11-27.12-22.19-33.44-10.29-5.82-23.85-2.56-33,4.91C143.34,151.77,135.7,172,135.93,192A75,75,0,0,0,138,208.84c3.19,13.21,9.3,25.53,16.16,37.25a293.34,293.34,0,0,0,16.88,25.67c19.87,27,44.58,50.44,73.2,68a221.84,221.84,0,0,0,45.65,21.7c17.88,5.91,33.82,12.06,53.13,8.4C363.27,366,383.2,353.47,391.22,334c2.38-5.78,3.57-12.2,2.24-18.29C390.71,303.1,373.66,295.61,363.46,289.51Z" transform="translate(-62.68 -62.68)"/></svg>